<svg width="38" height="22" viewBox="0 0 38 22" version="1.1" xmlns="http://www.w3.org/2000/svg" xmlns:xlink="http://www.w3.org/1999/xlink">
<title>Arrow</title>
<desc>Created using Figma</desc>
<g id="Canvas" transform="translate(543 715)">
<g id="Arrow">
<use xlink:href="#path0_stroke" transform="matrix(4.88905e-08 1 -1 3.9081e-08 -524 -698.068)" fill="#FFFFFF"/>
</g>
</g>
<defs>
<path id="path0_stroke" d="M 3.5559 1.76777C 4.53221 0.791456 4.53221 -0.791456 3.5559 -1.76777L -12.354 -17.6777C -13.3303 -18.654 -14.9132 -18.654 -15.8895 -17.6777C -16.8658 -16.7014 -16.8658 -15.1184 -15.8895 -14.1421L -1.7474 0L -15.8895 14.1421C -16.8658 15.1184 -16.8658 16.7014 -15.8895 17.6777C -14.9132 18.654 -13.3303 18.654 -12.354 17.6777L 3.5559 1.76777ZM 0 2.5L 1.78814 2.5L 1.78814 -2.5L 0 -2.5L 0 2.5Z"/>
</defs>
</svg>
